PathFileType	4	(X/Y/Z)	19_1_42_p0_0-335.trc
DataRate	CameraRate	NumFrames	NumMarkers	Units	OrigDataRate	OrigDataStartFrame	OrigNumFrames
57.0	57.0	6	27	m	57.0	210	336
Frame#	Time	RHip			RKnee			RAnkle			RBigToe			RSmallToe			RHeel			LHip			LKnee			LAnkle			LBigToe			LSmallToe			LHeel			Neck			Head			Nose			RShoulder			RElbow			RWrist			RThumb			RIndex			RPinky			LShoulder			LElbow			LWrist			LThumb			LIndex			LPinky			
		X1	Y1	Z1	X2	Y2	Z2	X3	Y3	Z3	X4	Y4	Z4	X5	Y5	Z5	X6	Y6	Z6	X7	Y7	Z7	X8	Y8	Z8	X9	Y9	Z9	X10	Y10	Z10	X11	Y11	Z11	X12	Y12	Z12	X13	Y13	Z13	X14	Y14	Z14	X15	Y15	Z15	X16	Y16	Z16	X17	Y17	Z17	X18	Y18	Z18	X19	Y19	Z19	X20	Y20	Z20	X21	Y21	Z21	X22	Y22	Z22	X23	Y23	Z23	X24	Y24	Z24	X25	Y25	Z25	X26	Y26	Z26	X27	Y27	Z27	
210	3.6842105263157894	0.2913804892353701	0.5789658651263173	0.8854802238780453	0.2788056331024887	0.556162592552109	1.2914373019517857	0.2844944006424717	0.5919878860471348	1.7314439593155755	0.26934654655997625	0.39170556262335876	1.7333129005202537	0.34260844108865385	0.39192188740092554	1.7188417853253515	0.24853028582256634	0.6682991770983647	1.7974059508931202	0.063446267133273	0.5713974104168977	0.8920059917739813	0.08001276957943018	0.5486606572707161	1.298369512054327	0.07101085124066339	0.5493399029573186	1.703611040746842	0.10034376799185186	0.346427332077852	1.7195808036978633	0.039546277637597084	0.4053357053204894	1.7516481816572806	0.08394253032108519	0.5922962914559889	1.7650259269391388	0.1254727915389322	0.4904033803399949	0.39892415033516776	0.09695313021290734	0.2377475204391029	0.12223720015751172	0.086191544047432	0.3009889615703857	0.3135443234243225	0.2943054006942233	0.47618620343875695	0.3707358799748297	0.36721211529643216	0.5507619925516352	0.5904452260583426	0.24058615996353422	0.35106287417286025	0.6232500234203345	0.123248201692055	0.28761958113503205	0.6227798755637568	0.09798428615256627	0.31976869084575915	0.6700356824741429	0.10435826317769023	0.38605187568789245	0.7128944554638083	-0.03369119404019512	0.5220788396562772	0.4081862190733536	-0.056731672776994785	0.5602051544012977	0.6253163313151981	0.028578447972370285	0.40463535666722766	0.6526699696014354	0.08901883821989523	0.32273531184728677	0.6273374762361146	0.1001505883365003	0.2642203557932462	0.6410432677975522	0.11156398223351266	0.3197859828267285	0.6938492580775207
211	3.7017543859649122	0.29144978482506206	0.5788892029288327	0.8852570192840852	0.27888952714841886	0.556699463729565	1.2914094497679056	0.2855408956165927	0.5923194178555397	1.7269473634902757	0.2741878217657288	0.3760794896873659	1.7225802708769589	0.3423224441993893	0.390225723594474	1.7182442469534789	0.24896706104323246	0.6698296408921315	1.7989509566370374	0.06344620226868332	0.5717414869181071	0.8923246876777124	0.08007932671594532	0.5488056600039791	1.2984270956694848	0.07090626779952515	0.5491905259901383	1.7036998025429755	0.10134660937983751	0.3463826202690936	1.7154296817127763	0.03950862513959655	0.40550690908410886	1.751653266240382	0.08451893355656095	0.594473475603296	1.7699710386660992	0.12554185264108367	0.4902522328748133	0.3988946536019243	0.09710046781931894	0.23814711773444064	0.125347190837481	0.08793296870039484	0.31208282906607043	0.3184941574608574	0.2945582282603953	0.4755372432765942	0.37398011616303034	0.36760910309579947	0.5511731196870656	0.5941798305818689	0.23468763391361133	0.3389662507542625	0.6239991562199714	0.12727217942215566	0.28928520898176796	0.6278560908985691	0.09869349176700203	0.31806366966005634	0.6775585275371325	0.10338947064201498	0.40717943047850874	0.7189494139489373	-0.03361513992113862	0.5219013172110376	0.4082404354767771	-0.05040080620948421	0.547167678596631	0.6220875849378201	0.04107347751392271	0.3902757320163952	0.6519617725907677	0.08934431215364123	0.29790653070562734	0.6248550347261285	0.10853735770052281	0.20867815962441424	0.6285344729747653	0.1190842514314585	0.29511865378291463	0.686371314078692
212	3.719298245614035	0.29149604241892363	0.5789087749823145	0.8854688849097259	0.2790255913321562	0.5573593328127981	1.291457565895396	0.28460255052811845	0.5922730501841751	1.7317164463151797	0.2750074189548831	0.37733420853823807	1.726692899290882	0.34328082548489414	0.39029672165021906	1.7136327997908747	0.2488955438734953	0.6694337181108005	1.79859377160195	0.06782119456204631	0.5758688992778709	0.8977660595463665	0.0801285439903863	0.5489209500984995	1.2985469088877364	0.07095417286128769	0.5491866577528142	1.7037466514015394	0.10601733772546848	0.3340154258395431	1.7105228404647232	0.039591757125249774	0.4055541696215369	1.7517467677445104	0.08638107730413022	0.6073555931612561	1.778224678114474	0.12549566710211618	0.4901998823572736	0.39867898314343553	0.09719346310679025	0.23821016714762772	0.12543796164428625	0.0930069988281394	0.3005416497459321	0.3130421474972283	0.2946605932627984	0.47550847670235363	0.3740305527182716	0.3676688334647567	0.5512166586668852	0.5943007078372867	0.24068241682992775	0.3276298926550003	0.624164352057955	0.13353382745823913	0.27872385478451567	0.6173251481166881	0.11424185185451706	0.2877913275936948	0.6677691223309884	0.10888373300910663	0.39606870737276423	0.7189738810432799	-0.033432684210090186	0.5216728399669053	0.408526490494782	-0.05005896754993742	0.5489465266614703	0.6256249840052334	0.03410034939329532	0.3932431799252053	0.6569909470772849	0.0851303798931248	0.31981410612373967	0.6275287931067149	0.10747034082347898	0.2391076335842582	0.6406312259963026	0.11974250547151935	0.29640615062501446	0.6907970351731314
213	3.736842105263158	0.2922010876175363	0.5798649272717563	0.8899754470984276	0.2861256536777956	0.5718247977228286	1.2980096353573691	0.2855120294274266	0.5923319364568663	1.7269461723866526	0.27493364258068004	0.3776203023288064	1.726902172479466	0.34326680314403385	0.3908482085006718	1.713967699628249	0.24900715343908522	0.6695035746399203	1.798679382373509	0.06828369118767502	0.5767836978159051	0.9028382206447273	0.08023668105376336	0.5487418616246911	1.2985330690573902	0.0709316444622176	0.549161641934099	1.7036393073107794	0.10601261496355396	0.33381963629642775	1.7104559991681125	0.03954595259848781	0.405385408363725	1.7516100623019257	0.08635866513914703	0.6081730409131082	1.7781760034729468	0.12551609949786363	0.4900176837860739	0.39853576259687556	0.09348268880606041	0.23607079897261532	0.12526677368191502	0.09305685919783255	0.3003661600783313	0.3130535557788612	0.2918695607279107	0.46425544930896473	0.3722143290515723	0.36791220956978476	0.5514718836635972	0.6018700227923984	0.23735341479466718	0.33169811407318006	0.6297498822821158	0.12821397280704167	0.2920344581921259	0.6317865412032406	0.10497422923267846	0.3205123012879072	0.6741860851162915	0.10075728349163988	0.3821884767235789	0.7239807761000503	-0.033436499010609834	0.521701512928312	0.4089030243451564	-0.049978157855142244	0.5496827063940158	0.6260743307698324	0.03415875971002794	0.39502873587699905	0.6690926454115564	0.0905906761682076	0.33339211196688373	0.6310949797891799	0.10850832624571687	0.28374145706983844	0.6572154612537232	0.11136828438146047	0.33169231954230716	0.7226008940777029
214	3.754385964912281	0.29165894559285926	0.5787562954227198	0.8853034560368125	0.2863503265587638	0.5720273045308686	1.298121966742993	0.2844369935798427	0.5926038533496514	1.7320253292687426	0.2750039681398931	0.37826344479826646	1.7269516833846499	0.3442568781666073	0.3934054655460469	1.7185479372623866	0.2494433524852107	0.6677822381592522	1.8025621155705889	0.07402657098760482	0.5638733688684494	0.897639333790209	0.08031920837139063	0.5488198179275461	1.2985848704265113	0.0709294737438787	0.5489334853306552	1.703723833019095	0.1060525702893845	0.33379737363596645	1.7104384538841193	0.039581183660900174	0.4054620550707835	1.7516009593334751	0.08175034055707883	0.6030081503428852	1.7760041196257368	0.12553528927492805	0.48998396236473707	0.39851819968204766	0.0935687499240931	0.23564968563599117	0.12507393760403857	0.0984594848314454	0.2902592379706144	0.314451964021467	0.29939383325489244	0.46302318694843514	0.3716844172554978	0.3678298076902299	0.5515916884536938	0.6020537999985373	0.23695904240903673	0.33189952056223326	0.6337187739780167	0.13219393087013995	0.28259799918948186	0.6339131550550869	0.11490513225895023	0.3023928803016842	0.6689348504517151	0.10996469836964957	0.4215353967789295	0.7459882356187423	-0.027395446924681512	0.5098110146243321	0.4063105852797092	-0.04990044424955794	0.5494083781193112	0.6260332365140551	0.033605216864004195	0.3937776354246997	0.6685023446658369	0.08511585499218395	0.32024560970307064	0.6349855722455496	0.10758412715907652	0.2397981715677454	0.6445690911179687	0.11039175887251979	0.30760280136476903	0.7180996870268037
215	3.7719298245614037	0.291786972136107	0.5790175637058872	0.8852496822843098	0.2863321364324745	0.5725792642162209	1.2979354790036066	0.28427244522287376	0.5927534758737633	1.7320377955956061	0.27480631410210077	0.3768635710943486	1.7271902640401746	0.34290307425135497	0.38889635251518945	1.7134498927655852	0.24929510607384361	0.6713352008344424	1.8006605789283865	0.07394880214215799	0.5628092089779799	0.8929946150167857	0.08388487068038158	0.5527903952188712	1.2960064752463296	0.07206180050786166	0.5488986387280932	1.6988993117536864	0.106155665727027	0.33349753288459294	1.710313789528225	0.03892605397799718	0.40408468838023914	1.745379753862968	0.0818920843791871	0.6023489775369837	1.7761970592281302	0.13097155376960157	0.47827798937018856	0.39633596906848767	0.0954889382322469	0.22831726181152556	0.12446082304782075	0.10011484800842471	0.3009660816734598	0.316097807861247	0.2995416648324107	0.46256680512438475	0.37171669390053774	0.36775061661160174	0.551354514375562	0.6018349559309834	0.2407014688088057	0.3329141092462285	0.6338976586518559	0.1325829221266351	0.281478948717925	0.6337246918287596	0.11959389378904683	0.2899607383567302	0.6712275248607638	0.11352200677805117	0.3990022629898477	0.7394536890082899	-0.027371774829407624	0.509478286348032	0.40647467289198524	-0.046086267395483826	0.5533604791088256	0.6269238003743592	0.03981427911707137	0.3818897531626153	0.6726175955045495	0.08989187138829538	0.3209718363848506	0.6353481521854177	0.10577098093886543	0.22956031161618387	0.641549497597491	0.10548200834651296	0.318012792373698	0.7188259373334539
